<svg width="31" height="30" viewBox="0 0 31 30" fill="none" xmlns="http://www.w3.org/2000/svg">
<path d="M15.9105 0.0595703C7.67696 0.0595703 0.94043 6.80814 0.94043 15.1198C0.94043 22.635 6.41948 28.8725 13.5752 29.9998V19.4786H9.77277V15.1198H13.5752V11.7982C13.5752 8.02559 15.8057 5.95142 19.2339 5.95142C20.8656 5.95142 22.5722 6.23699 22.5722 6.23699V9.94945H20.686C18.8297 9.94945 18.2458 11.1068 18.2458 12.2942V15.1198H22.4075L21.7339 19.4786H18.2458V29.9998C21.7734 29.4404 24.9857 27.6333 27.3026 24.9046C29.6196 22.1759 30.8886 18.7055 30.8806 15.1198C30.8806 6.80814 24.144 0.0595703 15.9105 0.0595703Z" fill="currentColor"/>
</svg>
