<svg width="30" height="30" viewBox="0 0 30 30" fill="none" xmlns="http://www.w3.org/2000/svg">
<g clip-path="url(#clip0)">
<path d="M12.1052 14.9699C12.1052 16.5524 13.388 17.8352 14.9706 17.8352C16.5531 17.8352 17.8359 16.5524 17.8359 14.9699C17.8359 13.3873 16.5531 12.1045 14.9706 12.1045C13.388 12.1045 12.1052 13.3873 12.1052 14.9699Z" fill="currentColor"/>
<path d="M8.2691 9.90033C8.40684 9.52708 8.62659 9.18924 8.91212 8.91193C9.18943 8.6264 9.52704 8.40666 9.90052 8.26892C10.2034 8.15128 10.6584 8.01125 11.4965 7.97311C12.4031 7.93176 12.675 7.92285 14.9702 7.92285C17.2656 7.92285 17.5375 7.93153 18.4439 7.97288C19.282 8.01125 19.7372 8.15128 20.0399 8.26892C20.4133 8.40666 20.7512 8.6264 21.0283 8.91193C21.3138 9.18924 21.5335 9.52686 21.6715 9.90033C21.7892 10.2032 21.9292 10.6585 21.9673 11.4966C22.0087 12.403 22.0176 12.6748 22.0176 14.9702C22.0176 17.2655 22.0087 17.5373 21.9673 18.4439C21.9292 19.282 21.7892 19.737 21.6715 20.0399C21.5335 20.4134 21.314 20.751 21.0285 21.0283C20.7512 21.3138 20.4136 21.5336 20.0401 21.6713C19.7372 21.7892 19.282 21.9292 18.4439 21.9674C17.5375 22.0087 17.2659 22.0174 14.9704 22.0174C12.6747 22.0174 12.4029 22.0087 11.4968 21.9674C10.6587 21.9292 10.2034 21.7892 9.90052 21.6713C9.15083 21.3821 8.55829 20.7896 8.2691 20.0399C8.15146 19.737 8.01144 19.282 7.97306 18.4439C7.93172 17.5373 7.92304 17.2655 7.92304 14.9702C7.92304 12.6748 7.93172 12.403 7.97306 11.4966C8.01121 10.6585 8.15124 10.2032 8.2691 9.90033ZM14.9702 19.3841C17.4082 19.3841 19.3845 17.408 19.3845 14.97C19.3845 12.532 17.4082 10.5559 14.9702 10.5559C12.5324 10.5559 10.5561 12.532 10.5561 14.97C10.5561 17.408 12.5324 19.3841 14.9702 19.3841ZM10.3816 11.413C10.9513 11.413 11.4132 10.9511 11.4132 10.3814C11.4132 9.8117 10.9513 9.34983 10.3816 9.34983C9.81189 9.34983 9.35001 9.8117 9.35001 10.3814C9.35024 10.9511 9.81189 11.413 10.3816 11.413Z" fill="currentColor"/>
<path d="M14.9703 0C23.2368 0 29.9404 6.7036 29.9404 14.9701C29.9404 23.2366 23.2368 29.9402 14.9703 29.9402C6.70385 29.9402 0.000242233 23.2366 0.000242233 14.9701C0.000242233 6.7036 6.70385 0 14.9703 0ZM6.42608 18.5141C6.46765 19.4292 6.61316 20.0539 6.8256 20.6008C7.27217 21.7555 8.18496 22.6683 9.33965 23.1148C9.88627 23.3273 10.5112 23.4725 11.4261 23.5143C12.3428 23.5562 12.6356 23.5662 14.9701 23.5662C17.3048 23.5662 17.5975 23.5562 18.5144 23.5143C19.4292 23.4725 20.0542 23.3273 20.6008 23.1148C21.1746 22.899 21.694 22.5607 22.1235 22.1232C22.5607 21.694 22.899 21.1744 23.1148 20.6008C23.3273 20.0542 23.4728 19.4292 23.5144 18.5143C23.5566 17.5974 23.5664 17.3046 23.5664 14.9701C23.5664 12.6356 23.5566 12.3427 23.5146 11.4261C23.473 10.511 23.3277 9.88626 23.1153 9.33941C22.8994 8.76583 22.5609 8.24616 22.1235 7.81695C21.6943 7.37951 21.1746 7.04122 20.601 6.82535C20.0542 6.61292 19.4294 6.46764 18.5144 6.42584C17.5977 6.38404 17.3048 6.37399 14.9703 6.37399C12.6358 6.37399 12.343 6.38404 11.4263 6.42607C10.5112 6.46764 9.8865 6.61292 9.33965 6.82513C8.76607 7.04099 8.2464 7.37951 7.81696 7.81695C7.37976 8.24639 7.04123 8.76583 6.8256 9.33941C6.61293 9.88626 6.46765 10.511 6.42585 11.4261C6.38405 12.3427 6.37423 12.6356 6.37423 14.9701C6.37423 17.3046 6.38405 17.5974 6.42608 18.5141Z" fill="currentColor"/>
</g>
<defs>
<clipPath id="clip0">
<rect width="29.9402" height="29.9402" fill="white" transform="matrix(-1 0 0 1 29.9404 0)"/>
</clipPath>
</defs>
</svg>
